<?xml version="1.0" encoding="UTF-8" standalone="no"?>
<svg
   width="24"
   height="24"
   viewBox="0 0 24 24"
   fill="none"
   stroke="#ffffff"
   stroke-width="2"
   stroke-linecap="round"
   stroke-linejoin="round"
   class="lucide lucide-image-icon lucide-image"
   version="1.1"
   id="svg1"
   sodipodi:docname="image.svg"
   inkscape:version="1.4.4 (dcaf3e7d9e, 2026-05-05)"
   xmlns:inkscape="http://www.inkscape.org/namespaces/inkscape"
   xmlns:sodipodi="http://sodipodi.sourceforge.net/DTD/sodipodi-0.dtd"
   xmlns="http://www.w3.org/2000/svg"
   xmlns:svg="http://www.w3.org/2000/svg">
  <defs
     id="defs1" />
  <sodipodi:namedview
     id="namedview1"
     pagecolor="#505050"
     bordercolor="#eeeeee"
     borderopacity="1"
     inkscape:showpageshadow="0"
     inkscape:pageopacity="0"
     inkscape:pagecheckerboard="0"
     inkscape:deskcolor="#505050"
     showgrid="true"
     inkscape:zoom="30.346666"
     inkscape:cx="13.609403"
     inkscape:cy="10.874341"
     inkscape:window-width="1354"
     inkscape:window-height="726"
     inkscape:window-x="0"
     inkscape:window-y="0"
     inkscape:window-maximized="1"
     inkscape:current-layer="svg1">
    <inkscape:grid
       id="grid1"
       units="px"
       originx="0"
       originy="0"
       spacingx="1"
       spacingy="1"
       empcolor="#0099e5"
       empopacity="0.30196078"
       color="#0099e5"
       opacity="0.14901961"
       empspacing="5"
       enabled="true"
       visible="true" />
  </sodipodi:namedview>
  <path
     id="rect2"
     style="opacity:1;fill:#ffffff;fill-rule:evenodd;stroke:none;stroke-width:1;stroke-linecap:square;stroke-dasharray:none"
     d="M 3,2 C 3,2.3333333 3,2.6666667 3,3 2.6666667,3 2.3333333,3 2,3 c 0,6 0,12 0,18 0.3333333,0 0.6666667,0 1,0 0,0.333333 0,0.666667 0,1 6,0 12,0 18,0 0,-0.333333 0,-0.666667 0,-1 0.333333,0 0.666667,0 1,0 C 22,15 22,9 22,3 21.666667,3 21.333333,3 21,3 21,2.6666667 21,2.3333333 21,2 15,2 9,2 3,2 Z m 1,2 c 5.3333333,0 10.666667,0 16,0 0,2.6666667 0,5.3333333 0,8 -0.333333,0 -0.666667,0 -1,0 0,-0.333333 0,-0.666667 0,-1 -0.333333,0 -0.666667,0 -1,0 0,-0.333333 0,-0.666667 0,-1 -1,0 -2,0 -3,0 0,0.333333 0,0.666667 0,1 -0.333333,0 -0.666667,0 -1,0 0,0.333333 0,0.666667 0,1 -0.333333,0 -0.666667,0 -1,0 0,0.333333 0,0.666667 0,1 -0.333333,0 -0.666667,0 -1,0 0,0.333333 0,0.666667 0,1 -0.333333,0 -0.666667,0 -1,0 0,0.333333 0,0.666667 0,1 -0.333333,0 -0.666667,0 -1,0 0,0.333333 0,0.666667 0,1 -0.3333333,0 -0.6666667,0 -1,0 0,0.333333 0,0.666667 0,1 -0.3333333,0 -0.6666667,0 -1,0 0,0.333333 0,0.666667 0,1 -0.3333333,0 -0.6666667,0 -1,0 0,0.333333 0,0.666667 0,1 -0.3333333,0 -0.6666667,0 -1,0 0,0.333333 0,0.666667 0,1 C 5.3333333,20 4.6666667,20 4,20 4,14.666667 4,9.3333333 4,4 Z M 7,6 C 7,6.3333333 7,6.6666667 7,7 6.6666667,7 6.3333333,7 6,7 c 0,1.3333333 0,2.6666667 0,4 0.3333333,0 0.6666667,0 1,0 0,0.333333 0,0.666667 0,1 1.3333333,0 2.6666667,0 4,0 0,-0.333333 0,-0.666667 0,-1 0.333333,0 0.666667,0 1,0 C 12,9.6666667 12,8.3333333 12,7 11.666667,7 11.333333,7 11,7 11,6.6666667 11,6.3333333 11,6 9.6666667,6 8.3333333,6 7,6 Z m 1,2 c 0.6666667,0 1.3333333,0 2,0 0,0.6666667 0,1.3333333 0,2 C 9.3333333,10 8.6666667,10 8,10 8,9.3333333 8,8.6666667 8,8 Z m 8,4 c 0.333333,0 0.666667,0 1,0 0,0.333333 0,0.666667 0,1 0.333333,0 0.666667,0 1,0 0,0.333333 0,0.666667 0,1 0.333333,0 0.666667,0 1,0 0,0.333333 0,0.666667 0,1 0.333333,0 0.666667,0 1,0 0,1.666667 0,3.333333 0,5 -3.666667,0 -7.333333,0 -11,0 0,-0.333333 0,-0.666667 0,-1 0.3333333,0 0.6666667,0 1,0 0,-0.333333 0,-0.666667 0,-1 0.333333,0 0.666667,0 1,0 0,-0.333333 0,-0.666667 0,-1 0.333333,0 0.666667,0 1,0 0,-0.333333 0,-0.666667 0,-1 0.333333,0 0.666667,0 1,0 0,-0.333333 0,-0.666667 0,-1 0.333333,0 0.666667,0 1,0 0,-0.333333 0,-0.666667 0,-1 0.333333,0 0.666667,0 1,0 0,-0.333333 0,-0.666667 0,-1 0.333333,0 0.666667,0 1,0 0,-0.333333 0,-0.666667 0,-1 z" />
</svg>
