<?xml version="1.0" encoding="UTF-8" standalone="no"?>
<svg
   width="24"
   height="24"
   viewBox="0 0 24 24"
   fill="none"
   stroke="#ffffff"
   stroke-width="2"
   stroke-linecap="round"
   stroke-linejoin="round"
   class="icon icon-tabler icons-tabler-outline icon-tabler-sort-ascending-letters"
   version="1.1"
   id="svg5"
   sodipodi:docname="sort-a-z.svg"
   inkscape:version="1.4.4 (dcaf3e7d9e, 2026-05-05)"
   xmlns:inkscape="http://www.inkscape.org/namespaces/inkscape"
   xmlns:sodipodi="http://sodipodi.sourceforge.net/DTD/sodipodi-0.dtd"
   xmlns="http://www.w3.org/2000/svg"
   xmlns:svg="http://www.w3.org/2000/svg">
  <defs
     id="defs5" />
  <sodipodi:namedview
     id="namedview5"
     pagecolor="#505050"
     bordercolor="#eeeeee"
     borderopacity="1"
     inkscape:showpageshadow="0"
     inkscape:pageopacity="0"
     inkscape:pagecheckerboard="0"
     inkscape:deskcolor="#505050"
     showgrid="true"
     inkscape:zoom="22.166667"
     inkscape:cx="8.8872179"
     inkscape:cy="13.353383"
     inkscape:window-width="1354"
     inkscape:window-height="726"
     inkscape:window-x="0"
     inkscape:window-y="0"
     inkscape:window-maximized="1"
     inkscape:current-layer="svg5">
    <inkscape:grid
       id="grid5"
       units="px"
       originx="0"
       originy="0"
       spacingx="1"
       spacingy="1"
       empcolor="#0099e5"
       empopacity="0.30196078"
       color="#0099e5"
       opacity="0.14901961"
       empspacing="5"
       enabled="true"
       visible="true" />
  </sodipodi:namedview>
  <path
     id="rect6"
     style="fill:#ffffff;fill-rule:evenodd;stroke:none;stroke-width:1;stroke-linecap:square;stroke-dasharray:none"
     d="M 15 2 L 15 3 L 14 3 L 14 11 L 16 11 L 16 8 L 18 8 L 18 11 L 20 11 L 20 3 L 19 3 L 19 2 L 15 2 z M 16 4 L 18 4 L 18 6 L 16 6 L 16 4 z M 6 5 L 6 15 L 5 15 L 5 14 L 3 14 L 3 16 L 4 16 L 4 17 L 5 17 L 5 18 L 6 18 L 6 19 L 8 19 L 8 18 L 9 18 L 9 17 L 10 17 L 10 16 L 11 16 L 11 14 L 9 14 L 9 15 L 8 15 L 8 5 L 6 5 z M 14 13 L 14 15 L 17 15 L 17 16 L 16 16 L 16 18 L 15 18 L 15 19 L 14 19 L 14 22 L 20 22 L 20 20 L 17 20 L 17 19 L 18 19 L 18 17 L 19 17 L 19 16 L 20 16 L 20 13 L 14 13 z " />
</svg>
