<?xml version="1.0" encoding="UTF-8" standalone="no"?>
<svg
   width="24"
   height="24"
   viewBox="0 0 24 24"
   fill="none"
   stroke="currentColor"
   stroke-width="2"
   stroke-linecap="round"
   stroke-linejoin="round"
   class="lucide lucide-sliders-horizontal-icon lucide-sliders-horizontal"
   version="1.1"
   id="svg9"
   sodipodi:docname="sliders-horizontal.svg"
   inkscape:version="1.4.4 (dcaf3e7d9e, 2026-05-05)"
   xmlns:inkscape="http://www.inkscape.org/namespaces/inkscape"
   xmlns:sodipodi="http://sodipodi.sourceforge.net/DTD/sodipodi-0.dtd"
   xmlns="http://www.w3.org/2000/svg"
   xmlns:svg="http://www.w3.org/2000/svg">
  <defs
     id="defs9" />
  <sodipodi:namedview
     id="namedview9"
     pagecolor="#505050"
     bordercolor="#eeeeee"
     borderopacity="1"
     inkscape:showpageshadow="0"
     inkscape:pageopacity="0"
     inkscape:pagecheckerboard="0"
     inkscape:deskcolor="#505050"
     showgrid="true"
     inkscape:zoom="17.333333"
     inkscape:cx="8.4807694"
     inkscape:cy="12.057693"
     inkscape:window-width="1354"
     inkscape:window-height="726"
     inkscape:window-x="0"
     inkscape:window-y="0"
     inkscape:window-maximized="1"
     inkscape:current-layer="svg9">
    <inkscape:grid
       id="grid9"
       units="px"
       originx="0"
       originy="0"
       spacingx="1"
       spacingy="1"
       empcolor="#0099e5"
       empopacity="0.30196078"
       color="#0099e5"
       opacity="0.14901961"
       empspacing="5"
       enabled="true"
       visible="true" />
  </sodipodi:namedview>
  <path
     id="rect9"
     style="opacity:1;fill:#ffffff;fill-rule:evenodd;stroke:none;stroke-width:1;stroke-linecap:square;stroke-dasharray:none"
     d="m 13,2 c 0,2 0,4 0,6 0.666667,0 1.333333,0 2,0 0,-0.6666667 0,-1.3333333 0,-2 2.333333,0 4.666667,0 7,0 0,-0.6666667 0,-1.3333333 0,-2 -2.333333,0 -4.666667,0 -7,0 0,-0.6666667 0,-1.3333333 0,-2 -0.666667,0 -1.333333,0 -2,0 z M 2,4 C 2,4.6666667 2,5.3333333 2,6 5,6 8,6 11,6 11,5.3333333 11,4.6666667 11,4 8,4 5,4 2,4 Z m 5,5 c 0,0.6666667 0,1.333333 0,2 -1.6666667,0 -3.3333333,0 -5,0 0,0.666667 0,1.333333 0,2 1.6666667,0 3.3333333,0 5,0 0,0.666667 0,1.333333 0,2 0.6666667,0 1.3333333,0 2,0 C 9,13 9,11 9,9 8.3333333,9 7.6666667,9 7,9 Z m 4,2 c 0,0.666667 0,1.333333 0,2 3.666667,0 7.333333,0 11,0 0,-0.666667 0,-1.333333 0,-2 -3.666667,0 -7.333333,0 -11,0 z m 4,5 c 0,2 0,4 0,6 0.666667,0 1.333333,0 2,0 0,-0.666667 0,-1.333333 0,-2 1.666667,0 3.333333,0 5,0 0,-0.666667 0,-1.333333 0,-2 -1.666667,0 -3.333333,0 -5,0 0,-0.666667 0,-1.333333 0,-2 -0.666667,0 -1.333333,0 -2,0 z M 2,18 c 0,0.666667 0,1.333333 0,2 3.6666667,0 7.3333333,0 11,0 0,-0.666667 0,-1.333333 0,-2 -3.6666667,0 -7.3333333,0 -11,0 z" />
</svg>
