<?xml version="1.0" encoding="UTF-8" standalone="no"?>
<svg
   width="24"
   height="24"
   viewBox="0 0 24 24"
   fill="currentColor"
   class="icon icon-tabler icons-tabler-filled icon-tabler-moon"
   version="1.1"
   id="svg2"
   sodipodi:docname="blue-light-filter.svg"
   xml:space="preserve"
   inkscape:version="1.4.4 (dcaf3e7d9e, 2026-05-05)"
   xmlns:inkscape="http://www.inkscape.org/namespaces/inkscape"
   xmlns:sodipodi="http://sodipodi.sourceforge.net/DTD/sodipodi-0.dtd"
   xmlns="http://www.w3.org/2000/svg"
   xmlns:svg="http://www.w3.org/2000/svg"><defs
     id="defs2" /><sodipodi:namedview
     id="namedview2"
     pagecolor="#505050"
     bordercolor="#eeeeee"
     borderopacity="1"
     inkscape:showpageshadow="0"
     inkscape:pageopacity="0"
     inkscape:pagecheckerboard="0"
     inkscape:deskcolor="#505050"
     showgrid="true"
     inkscape:zoom="17.333333"
     inkscape:cx="11.307692"
     inkscape:cy="12.75"
     inkscape:window-width="1216"
     inkscape:window-height="726"
     inkscape:window-x="0"
     inkscape:window-y="0"
     inkscape:window-maximized="1"
     inkscape:current-layer="svg2"><inkscape:grid
       id="grid2"
       units="px"
       originx="0"
       originy="0"
       spacingx="1"
       spacingy="1"
       empcolor="#0099e5"
       empopacity="0.30196078"
       color="#0099e5"
       opacity="0.14901961"
       empspacing="5"
       enabled="true"
       visible="true" /></sodipodi:namedview><path
     id="rect1"
     style="fill:#ffffff;stroke:none;stroke-width:1;stroke-linecap:square;stroke-linejoin:round;opacity:1;fill-rule:evenodd;stroke-dasharray:none"
     d="M 8 2 L 8 3 L 6 3 L 6 4 L 5 4 L 5 5 L 4 5 L 4 6 L 3 6 L 3 8 L 2 8 L 2 16 L 3 16 L 3 18 L 4 18 L 4 19 L 5 19 L 5 20 L 6 20 L 6 21 L 8 21 L 8 22 L 16 22 L 16 21 L 18 21 L 18 20 L 19 20 L 19 19 L 20 19 L 20 18 L 21 18 L 21 16 L 22 16 L 22 11 L 19 11 L 19 12 L 15 12 L 15 11 L 14 11 L 14 10 L 13 10 L 13 9 L 12 9 L 12 5 L 13 5 L 13 2 L 8 2 z " /></svg>
